HIERARCHY
ROOT Hips
{
	OFFSET -0.001795 -0.223333 0.028219
	CHANNELS 6 Xposition Yposition Zposition Zrotation Yrotation Xrotation 
	JOINT LeftUpLeg
	{
		OFFSET 0.069520 -0.091406 -0.006815
		CHANNELS 3 Zrotation Yrotation Xrotation
		JOINT LeftLeg
		{
			OFFSET 0.034277 -0.375199 -0.004496
			CHANNELS 3 Zrotation Yrotation Xrotation
			JOINT LeftFoot
			{
				OFFSET -0.013596 -0.397961 -0.043693
				CHANNELS 3 Zrotation Yrotation Xrotation
				JOINT LeftToe
				{
					OFFSET 0.026358 -0.055791 0.119288
					CHANNELS 3 Zrotation Yrotation Xrotation
					End Site
					{
						OFFSET 0.000000 0.000000 0.000000
					}
				}
			}
		}
	}
	JOINT RightUpLeg
	{
		OFFSET -0.067670 -0.090522 -0.004320
		CHANNELS 3 Zrotation Yrotation Xrotation
		JOINT RightLeg
		{
			OFFSET -0.038290 -0.382569 -0.008850
			CHANNELS 3 Zrotation Yrotation Xrotation
			JOINT RightFoot
			{
				OFFSET 0.015774 -0.398415 -0.042312
				CHANNELS 3 Zrotation Yrotation Xrotation
				JOINT RightToe
				{
					OFFSET -0.025372 -0.048144 0.123348
					CHANNELS 3 Zrotation Yrotation Xrotation
					End Site
					{
						OFFSET 0.000000 0.000000 0.000000
					}
				}
			}
		}
	}
	JOINT Spine
	{
		OFFSET -0.002533 0.108963 -0.026696
		CHANNELS 3 Zrotation Yrotation Xrotation
		JOINT Spine1
		{
			OFFSET 0.005487 0.135180 0.001092
			CHANNELS 3 Zrotation Yrotation Xrotation
			JOINT Spine2
			{
				OFFSET 0.001457 0.052922 0.025425
				CHANNELS 3 Zrotation Yrotation Xrotation
				JOINT Neck
				{
					OFFSET -0.002778 0.213870 -0.042857
					CHANNELS 3 Zrotation Yrotation Xrotation
					JOINT Head
					{
						OFFSET 0.005152 0.064970 0.051349
						CHANNELS 3 Zrotation Yrotation Xrotation
						End Site
						{
							OFFSET 0.000000 0.000000 0.000000
						}
					}
				}
				JOINT LeftShoulder
				{
					OFFSET 0.078845 0.121749 -0.034090
					CHANNELS 3 Zrotation Yrotation Xrotation
					JOINT LeftArm
					{
						OFFSET 0.090977 0.030469 -0.008868
						CHANNELS 3 Zrotation Yrotation Xrotation
						JOINT LeftForeArm
						{
							OFFSET 0.259612 -0.012772 -0.027456
							CHANNELS 3 Zrotation Yrotation Xrotation
							JOINT LeftHand
							{
								OFFSET 0.249234 0.008986 -0.001171
								CHANNELS 3 Zrotation Yrotation Xrotation
								End Site
								{
									OFFSET 0.000000 0.000000 0.000000
								}
							}
						}
					}
				}
				JOINT RightShoulder
				{
					OFFSET -0.081759 0.118833 -0.038615
					CHANNELS 3 Zrotation Yrotation Xrotation
					JOINT RightArm
					{
						OFFSET -0.096012 0.032551 -0.009143
						CHANNELS 3 Zrotation Yrotation Xrotation
						JOINT RightForeArm
						{
							OFFSET -0.253742 -0.013329 -0.021401
							CHANNELS 3 Zrotation Yrotation Xrotation
							JOINT RightHand
							{
								OFFSET -0.255298 0.007772 -0.005559
								CHANNELS 3 Zrotation Yrotation Xrotation
								End Site
								{
									OFFSET 0.000000 0.000000 0.000000
								}
							}
						}
					}
				}
			}
		}
	}
}
MOTION
Frames: 17
Frame Time: 0.050000
0.007384 0.943531 -0.076201 -3.098093 0.051971 11.577408 15.087301 0.461141 -23.586950 -8.101346 1.252111 9.669644 5.294253 13.769158 16.581881 0.000000 0.000000 0.000000 -4.983441 1.770790 -26.475832 5.684141 -0.764600 15.610309 -4.927551 -14.858500 16.461115 0.000000 0.000000 0.000000 -5.984147 0.639727 38.331491 8.526151 -1.891319 -18.104724 -4.857161 -6.885016 26.432946 -13.584001 9.234739 -17.886678 0.000000 0.000000 0.000000 -10.541169 -27.742700 13.759635 -70.361914 -68.366374 41.243068 35.400368 -29.942260 -6.694652 0.000000 0.000000 0.000000 -1.340847 23.632757 7.878278 62.374244 31.934410 8.280275 -47.659815 57.023908 -23.326123 0.000000 0.000000 0.000000 
0.007007 0.942835 -0.074055 -3.201921 0.278144 11.328123 15.369144 0.503204 -23.748251 -8.103201 1.257873 9.976580 4.788745 13.101917 16.899501 0.000000 0.000000 0.000000 -5.467097 1.651211 -26.212397 6.348479 -0.948252 16.056896 -5.278525 -15.444595 16.887727 0.000000 0.000000 0.000000 -5.978803 0.599751 38.900459 8.616756 -1.979532 -17.523890 -3.834593 -5.666150 25.786294 -13.022050 8.934685 -18.296386 0.000000 0.000000 0.000000 -12.199472 -28.189016 14.223615 -71.040113 -68.183891 41.257491 31.074749 -28.343701 -5.436798 0.000000 0.000000 0.000000 -1.408226 24.914530 8.330786 62.711958 33.554360 9.712651 -38.426781 52.838199 -16.266511 0.000000 0.000000 0.000000 
0.006720 0.942875 -0.070545 -3.174002 1.027938 11.287924 15.451794 0.451386 -23.873714 -8.056615 1.228598 10.133567 4.519148 12.836353 17.069477 0.000000 0.000000 0.000000 -5.692554 1.541148 -25.816201 6.681010 -1.070008 16.079259 -6.209854 -16.887616 17.112146 0.000000 0.000000 0.000000 -5.830567 0.423789 39.486434 8.347522 -1.785709 -18.535921 -3.201836 -4.959363 26.636570 -13.166052 9.091754 -19.086474 0.000000 0.000000 0.000000 -13.477340 -28.448588 14.554769 -75.146158 -67.666496 43.600012 28.393624 -29.318125 -4.993357 0.000000 0.000000 0.000000 -0.767247 25.370681 8.619716 63.167395 33.604682 10.005659 -34.630589 50.114007 -13.244357 0.000000 0.000000 0.000000 
0.006518 0.942699 -0.065737 -3.277832 1.545194 10.973841 15.432836 0.372565 -23.130949 -7.818957 1.131835 9.244481 4.019131 12.126095 16.760472 0.000000 0.000000 0.000000 -5.823417 1.413238 -24.210235 6.947120 -1.125921 14.841926 -6.705359 -17.597320 16.674665 0.000000 0.000000 0.000000 -6.250725 0.506927 39.460802 8.893085 -2.007672 -17.800037 -2.675743 -3.818175 26.039177 -13.518129 9.705763 -17.403220 0.000000 0.000000 0.000000 -15.654692 -29.073606 15.205933 -75.598134 -67.072307 43.038595 25.766987 -31.078255 -4.703221 0.000000 0.000000 0.000000 -0.437572 25.768380 8.877464 62.801187 33.047799 9.918677 -32.639653 48.889829 -11.810338 0.000000 0.000000 0.000000 
0.006613 0.942841 -0.060315 -3.393107 1.651421 10.863349 15.974770 0.423734 -22.521449 -7.713638 1.081246 8.418935 3.829417 11.898169 17.028003 0.000000 0.000000 0.000000 -5.599908 1.403351 -23.279950 6.561055 -1.023073 14.285707 -6.509402 -17.252409 16.758064 0.000000 0.000000 0.000000 -6.811437 0.716527 39.851504 8.702428 -1.943574 -17.850652 -2.335975 -3.323123 26.188486 -13.186780 9.706278 -16.136259 0.000000 0.000000 0.000000 -15.170451 -29.084279 14.951879 -78.732392 -66.552114 44.885894 24.543951 -31.604179 -4.459450 0.000000 0.000000 0.000000 -0.255025 25.901130 8.985152 62.492197 33.362487 10.114261 -31.719324 47.648468 -10.986520 0.000000 0.000000 0.000000 
0.007181 0.943102 -0.055363 -3.667697 0.918392 10.744087 16.125646 0.494190 -22.017294 -7.614668 1.052025 7.449794 4.330066 12.607797 17.605512 0.000000 0.000000 0.000000 -5.388917 1.434334 -22.415567 6.426333 -0.939167 13.431318 -5.805199 -16.140305 16.146179 0.000000 0.000000 0.000000 -7.421912 1.071029 39.375440 8.703584 -2.027286 -17.150080 -1.776311 -2.161140 26.056220 -12.861706 9.742331 -14.909167 0.000000 0.000000 0.000000 -15.743677 -28.806444 14.745572 -77.745056 -65.249567 42.628168 23.076436 -33.739145 -4.410002 0.000000 0.000000 0.000000 0.519465 26.141145 9.269047 61.440388 33.896341 10.297006 -31.106939 46.211076 -10.243579 0.000000 0.000000 0.000000 
0.008148 0.943600 -0.051317 -3.749567 0.939378 11.064253 16.189336 0.480228 -21.774393 -7.397303 0.976205 6.291916 4.346809 12.614777 17.509497 0.000000 0.000000 0.000000 -5.488721 1.409920 -22.139604 6.015038 -0.825425 12.315146 -5.426307 -15.495274 16.157630 0.000000 0.000000 0.000000 -7.559777 1.120845 38.892968 8.730223 -2.073394 -16.741976 -1.558698 -1.747525 25.537913 -12.169814 9.381510 -13.856817 0.000000 0.000000 0.000000 -15.307660 -28.022551 14.093203 -76.851524 -63.661864 40.371812 22.434161 -35.599433 -4.512019 0.000000 0.000000 0.000000 0.530525 26.523865 9.450861 60.600989 34.951245 10.830336 -30.644864 46.478649 -10.117784 0.000000 0.000000 0.000000 
0.009462 0.944414 -0.048254 -4.032123 0.542802 11.656762 16.621263 0.576622 -21.932419 -7.682665 1.005830 5.531502 5.236026 13.915360 18.231839 0.000000 0.000000 0.000000 -5.192329 1.486649 -22.191860 5.563433 -0.702570 11.580153 -5.073919 -15.003117 16.532030 0.000000 0.000000 0.000000 -7.812997 1.284302 38.512567 8.583786 -1.968991 -17.299830 -0.914716 -1.244807 26.018649 -12.053638 9.317468 -14.088040 0.000000 0.000000 0.000000 -14.830341 -26.887302 13.331956 -76.067133 -62.228378 38.295820 21.723078 -36.717940 -4.423253 0.000000 0.000000 0.000000 0.194242 26.880426 9.537753 60.213214 36.951480 11.911894 -29.337540 45.377107 -9.267276 0.000000 0.000000 0.000000 
0.010951 0.945248 -0.045404 -4.217710 0.472432 12.245001 16.604123 0.606981 -22.639374 -7.412919 0.971357 5.693952 5.478511 14.284820 18.548837 0.000000 0.000000 0.000000 -4.969873 1.554720 -22.593524 5.226898 -0.622783 10.930350 -4.444951 -13.950724 16.462446 0.000000 0.000000 0.000000 -8.072308 1.385784 37.537491 8.783479 -2.037763 -17.078833 -0.574234 -0.802793 25.636442 -11.999889 9.312042 -13.910779 0.000000 0.000000 0.000000 -15.445895 -26.234092 13.045325 -73.337207 -60.406254 34.632594 21.364540 -37.108926 -4.397488 0.000000 0.000000 0.000000 1.100740 27.927638 10.173746 60.076047 38.474010 12.890459 -28.742434 43.526363 -8.569779 0.000000 0.000000 0.000000 
0.012543 0.945710 -0.042145 -4.621714 0.642008 12.625742 16.569460 0.601945 -23.031001 -7.150317 0.936474 6.026944 5.346506 14.046201 17.894581 0.000000 0.000000 0.000000 -4.736340 1.598778 -22.746001 5.192805 -0.614289 10.486496 -4.019225 -13.202344 16.419091 0.000000 0.000000 0.000000 -8.306741 1.425926 36.383568 8.992132 -2.096764 -17.030543 -0.240087 -0.279188 25.497324 -11.549012 9.006527 -14.374087 0.000000 0.000000 0.000000 -15.596828 -25.885627 12.759143 -72.670954 -59.150665 32.953873 21.564591 -36.043803 -4.352095 0.000000 0.000000 0.000000 1.249887 29.020655 10.664210 60.740515 39.372261 13.818464 -27.568986 40.983778 -7.562461 0.000000 0.000000 0.000000 
0.014108 0.946284 -0.037866 -4.611049 0.635566 12.649333 16.482367 0.577348 -22.857759 -7.353278 0.972792 6.142202 5.775454 14.718922 18.520672 0.000000 0.000000 0.000000 -4.796320 1.587098 -22.685508 5.636488 -0.698715 10.259093 -3.997182 -13.167981 16.452322 0.000000 0.000000 0.000000 -8.734760 1.554551 35.210999 9.144532 -2.161375 -16.817624 0.129377 0.289487 25.304094 -10.813551 8.470188 -15.406257 0.000000 0.000000 0.000000 -16.267606 -25.530658 12.577137 -72.002853 -57.982866 31.396473 21.607413 -35.233504 -4.284450 0.000000 0.000000 0.000000 2.313087 29.112135 11.017177 61.211927 39.467108 14.144151 -26.007808 37.571996 -6.320203 0.000000 0.000000 0.000000 
0.015449 0.946498 -0.032396 -4.737134 0.693224 12.246211 16.560115 0.577873 -22.536219 -7.982102 1.123795 7.425491 6.130167 15.161744 17.892899 0.000000 0.000000 0.000000 -4.418715 1.593617 -21.976064 5.774942 -0.729908 10.430778 -4.126073 -13.361546 16.336952 0.000000 0.000000 0.000000 -9.055752 1.617495 34.059232 9.269676 -2.230749 -16.565832 0.041394 0.850493 25.139311 -9.906566 7.804236 -17.123994 0.000000 0.000000 0.000000 -15.601495 -25.447059 12.201554 -71.883438 -57.569589 30.892271 22.718272 -33.828380 -4.480962 0.000000 0.000000 0.000000 2.718723 29.152283 11.174208 63.118353 38.716208 14.485367 -25.688618 37.226133 -6.115374 0.000000 0.000000 0.000000 
0.016852 0.946834 -0.025712 -4.631817 1.321764 11.412458 16.062594 0.398181 -21.280442 -7.502788 1.023376 7.449309 5.656317 14.506325 17.289248 0.000000 0.000000 0.000000 -4.498560 1.479546 -20.886680 5.812266 -0.767607 10.944103 -4.170544 -13.320752 16.305019 0.000000 0.000000 0.000000 -9.116527 1.500078 32.672067 9.448835 -2.374975 -15.778787 0.157057 0.978593 24.448528 -9.263056 7.374884 -18.159669 0.000000 0.000000 0.000000 -15.274338 -26.148164 12.342964 -70.604057 -57.513365 30.052509 24.667836 -34.591168 -5.233885 0.000000 0.000000 0.000000 3.406863 29.058944 11.326860 63.706128 38.457482 14.635242 -25.564361 35.225415 -5.693088 0.000000 0.000000 0.000000 
0.018291 0.947737 -0.018238 -4.478986 2.268834 10.409384 15.615152 0.229487 -20.118738 -7.909249 1.079627 7.883903 6.287524 15.471754 16.782330 0.000000 0.000000 0.000000 -4.508199 1.336771 -19.249688 6.115378 -0.868011 11.149361 -5.081008 -14.761298 16.856376 0.000000 0.000000 0.000000 -8.733281 1.203918 31.053244 8.779476 -2.203823 -15.563846 0.022760 0.070353 24.693467 -7.749111 6.261261 -20.308993 0.000000 0.000000 0.000000 -13.265347 -27.104502 12.408073 -66.427975 -60.284256 29.851527 29.021933 -32.948749 -6.275164 0.000000 0.000000 0.000000 2.525963 28.737159 10.877388 64.791315 37.696536 14.467931 -28.278034 36.669727 -6.769204 0.000000 0.000000 0.000000 
0.019831 0.949034 -0.010516 -4.362861 3.120536 9.375005 15.042674 0.065785 -18.666502 -7.581899 1.000704 8.013086 5.364491 14.093350 15.610203 0.000000 0.000000 0.000000 -4.406601 1.225608 -17.712859 5.863998 -0.856641 11.633335 -5.405368 -15.124319 16.291121 0.000000 0.000000 0.000000 -8.503475 0.982173 28.833234 8.643335 -2.201026 -15.270712 -0.378442 -1.018028 24.237331 -8.343443 6.546245 -20.474422 0.000000 0.000000 0.000000 -12.540953 -26.982137 12.257484 -61.495714 -61.993623 28.219123 33.652603 -36.835102 -8.608860 0.000000 0.000000 0.000000 1.567676 27.993882 10.269908 63.229395 36.233899 12.908868 -33.611278 39.710108 -9.236578 0.000000 0.000000 0.000000 
0.021300 0.951569 -0.002913 -4.150240 4.758165 8.277198 14.137872 -0.155872 -17.126039 -6.991297 0.845164 7.602827 5.357442 14.176157 14.929722 0.000000 0.000000 0.000000 -4.609611 1.039562 -15.748543 6.137391 -0.949753 10.627006 -6.912324 -17.445557 18.182716 0.000000 0.000000 0.000000 -8.359857 0.756916 27.265917 8.307931 -1.888397 -17.242467 -0.365471 -2.490838 25.278939 -6.781827 5.496552 -21.039262 0.000000 0.000000 0.000000 -9.425263 -25.988209 11.151193 -49.601868 -67.076064 24.193112 41.990366 -44.382500 -14.197108 0.000000 0.000000 0.000000 -0.475571 26.002396 9.002166 58.461089 34.689002 10.365649 -45.140984 45.750240 -15.744830 0.000000 0.000000 0.000000 
0.022330 0.953339 0.004605 -3.970166 5.991740 7.814517 12.920385 -0.339597 -16.553725 -6.112328 0.673417 7.649768 4.930348 13.459178 13.590040 0.000000 0.000000 0.000000 -4.945733 0.920646 -14.737997 6.290172 -1.014525 10.263497 -7.549922 -18.311245 17.390256 0.000000 0.000000 0.000000 -8.881380 0.771791 24.571572 9.200022 -1.921648 -19.308083 -1.102554 -2.852409 26.165750 -6.683950 5.583698 -19.184521 0.000000 0.000000 0.000000 -7.088915 -24.825533 10.065882 -25.937269 -69.131210 9.838430 65.899057 -52.159956 -30.521137 0.000000 0.000000 0.000000 -2.218732 23.541467 7.803803 48.909145 31.833871 6.492781 -65.154820 52.281072 -29.216125 0.000000 0.000000 0.000000 
